{"title":"Bikkar Bai Sentimental 2013 Hindi Punjabi Movies DvDScr Sample I","uid":8416396,"size":684209560,"categoryP":"video","categoryS":"movies","magnet":"?xt=urn:btih:f7fad64cf97dc911f477fd7b28e75aca2359f10a&amp;dn=Bikkar+Bai+Sentimental+2013+Hindi+Punjabi+Movies+DvDScr+Sample+I&amp;tr=udp%3A%2F%2Ftracker.openbittorrent.com%3A80&amp;tr=udp%3A%2F%2Fopen.demonii.com%3A1337&amp;tr=udp%3A%2F%2Ftracker.coppersurfer.tk%3A6969&amp;tr=udp%3A%2F%2Fexodus.desync.com%3A6969","seeders":0,"leechers":0,"uploader":"basicssom","files":2,"time":1367052234,"description":"Bikkar Bai Sentimental 2013 Hindi Punjabi Movies DvDScr Sample Included ~ rDX\n\nScreen Shots :\n &lt;a href=&quot;\nhttp://myimghosting.serveftp.com/13/BikkarBaiSentimental.html&quot; rel=&quot;nofollow&quot; target=&quot;_NEW&quot;&gt;\nhttp://myimghosting.serveftp.com/13/BikkarBaiSentimental.html&lt;/a&gt;\n &lt;a href=&quot;\nhttp://myimghost.cwahi.net/BikkarBaiSentimental.html&quot; rel=&quot;nofollow&quot; target=&quot;_NEW&quot;&gt;\nhttp://myimghost.cwahi.net/BikkarBaiSentimental.html&lt;/a&gt;\n\n\nFormat                                   : AVI\nFormat/Info                              : Audio Video Interleave\nFile size                                : 617 MiB\nDuration                                 : 1h 59mn\nOverall bit rate                         : 723 Kbps\n\nVideo\nID                                       : 0\nFormat                                   : MPEG-4 Visual\nFormat profile                           : Simple@L3\nFormat settings, BVOP                    : No\nFormat settings, QPel                    : No\nFormat settings, GMC                     : No warppoints\nFormat settings, Matrix                  : Default (H.263)\nCodec ID                                 : XVID\nCodec ID/Hint                            : XviD\nDuration                                 : 1h 59mn\nBit rate                                 : 589 Kbps\nWidth                                    : 608 pixels\nHeight                                   : 288 pixels\nDisplay aspect ratio                     : 2.111\nFrame rate                               : 23.976 fps\nColor space                              : YUV\nChroma subsampling                       : 4:2:0\nBit depth                                : 8 bits\nScan type                                : Progressive\nCompression mode                         : Lossy\nBits/(Pixel*Frame)                       : 0.140\nStream size                              : 502 MiB (81%)\nWriting library                          : ZJMedia MPEG Encoder\n\nAudio\nID                                       : 1\nFormat                                   : MPEG Audio\nFormat version                           : Version 1\nFormat profile                           : Layer 3\nMode                                     : Joint stereo\nMode extension                           : MS Stereo\nCodec ID                                 : 55\nCodec ID/Hint                            : MP3\nDuration                                 : 1h 59mn\nBit rate mode                            : Constant\nBit rate                                 : 128 Kbps\nChannel(s)                               : 2 channels\nSampling rate                            : 44.1 KHz\nCompression mode                         : Lossy\nStream size                              : 109 MiB (18%)\nAlignment                                : Split accross interleaves\nInterleave, duration                     : 959 ms (23.00 video frames)","torrent":{"xt":"urn:btih:f7fad64cf97dc911f477fd7b28e75aca2359f10a","amp;dn":"Bikkar+Bai+Sentimental+2013+Hindi+Punjabi+Movies+DvDScr+Sample+I","amp;tr":["udp%3A%2F%2Ftracker.openbittorrent.com%3A80","udp%3A%2F%2Fopen.demonii.com%3A1337","udp%3A%2F%2Ftracker.coppersurfer.tk%3A6969","udp%3A%2F%2Fexodus.desync.com%3A6969"],"infoHash":"f7fad64cf97dc911f477fd7b28e75aca2359f10a","infoHashBuffer":{"type":"Buffer","data":[247,250,214,76,249,125,201,17,244,119,253,123,40,231,90,202,35,89,241,10]},"announce":[],"urlList":[]}}